<?xml version="1.0" standalone="no"?>
<!DOCTYPE svg PUBLIC "-//W3C//DTD SVG 20010904//EN"
 "http://www.w3.org/TR/2001/REC-SVG-20010904/DTD/svg10.dtd">
<svg version="1.0" xmlns="http://www.w3.org/2000/svg"
 width="200.000000pt" height="200.000000pt" viewBox="0 0 200.000000 200.000000"
 preserveAspectRatio="xMidYMid meet">

<g transform="translate(0.000000,200.000000) scale(0.100000,-0.100000)"
fill="#000000" stroke="none">
<path d="M0 1568 l0 -433 23 56 c35 83 84 145 150 190 33 21 62 39 66 39 4 0
7 44 6 98 0 89 2 101 29 150 33 60 76 101 139 134 35 19 58 23 132 23 78 0 96
-3 135 -25 l45 -25 60 60 c71 72 135 111 230 141 l70 23 -542 1 -543 0 0 -432z"/>
<path d="M1334 1985 c256 -70 444 -333 422 -587 l-6 -68 41 -20 c84 -43 161
-134 195 -228 11 -31 13 35 14 441 l0 477 -357 -1 c-318 -1 -353 -2 -309 -14z"/>
<path d="M453 1729 c-54 -27 -109 -87 -122 -136 -15 -52 -14 -126 2 -145 12
-17 283 -85 294 -74 3 3 19 70 34 148 16 79 31 153 34 164 4 18 -3 25 -44 43
-65 28 -143 28 -198 0z"/>
<path d="M239 1332 c-56 -36 -106 -93 -133 -151 -16 -35 -21 -66 -21 -131 0
-73 4 -93 28 -141 28 -59 92 -126 146 -153 l30 -16 211 190 c115 105 210 194
209 198 0 4 -17 41 -37 82 l-38 75 -149 37 c-83 20 -161 37 -176 37 -14 1 -45
-12 -70 -27z"/>
<path d="M1533 1112 c-99 -86 -197 -172 -218 -191 l-39 -34 45 -84 c28 -53 51
-85 64 -88 11 -3 87 -21 168 -40 l148 -35 40 20 c63 33 116 87 149 152 26 53
30 72 30 142 0 68 -4 90 -29 141 -29 61 -93 130 -149 159 l-30 16 -179 -158z"/>
<path d="M547 871 l-218 -196 3 -111 c4 -103 7 -116 41 -188 84 -178 254 -286
447 -286 134 0 248 47 345 143 l62 62 37 192 36 192 -44 89 c-24 48 -50 93
-58 98 -7 6 -44 24 -83 42 -38 17 -133 60 -210 95 l-140 64 -218 -196z"/>
<path d="M0 483 l0 -483 1000 0 1000 0 -1 433 0 432 -19 -50 c-29 -74 -87
-145 -160 -194 l-65 -43 4 -73 c4 -99 -17 -160 -80 -229 -93 -102 -228 -129
-346 -70 l-58 29 -52 -55 c-61 -65 -142 -116 -232 -147 -83 -28 -248 -32 -332
-7 -146 43 -286 160 -351 294 -47 96 -61 164 -56 271 l3 87 -32 12 c-40 14
-134 99 -164 146 -12 19 -30 56 -40 82 -18 47 -18 43 -19 -435z"/>
<path d="M1347 503 c-15 -76 -29 -153 -33 -170 -6 -31 -4 -34 37 -53 56 -25
140 -26 194 -1 98 44 156 166 129 268 -6 24 -5 23 -159 59 -60 13 -117 27
-126 30 -13 3 -20 -19 -42 -133z"/>
</g>
</svg>
